<svg width="160" height="46" xmlns="http://www.w3.org/2000/svg">
 <defs>
  <style>.cls-1{fill:#3f3f3f;}.cls-2{fill:#238fc0;}.cls-3{fill:#eaac27;}</style>
 </defs>
 <g>
  <title>Layer 1</title>
  <rect id="svg_1" rx="0.13" height="1.05" width="0.95" y="30.89" x="3.73" class="cls-1"/>
  <rect id="svg_2" rx="0.13" height="1.05" width="0.95" y="30.89" x="5.42" class="cls-1"/>
  <path id="svg_3" d="m16,33.52q-2.31,0 -2.31,2.94l0,0.36c0,0.12 0,0.23 0,0.34a1.51,1.51 0 0 1 -0.08,0.56a1.42,1.42 0 0 1 -0.19,0.37a0.7,0.7 0 0 1 -0.27,0.19a0.93,0.93 0 0 1 -0.29,0l-0.79,0a1.65,1.65 0 0 1 -0.93,-0.24a0.87,0.87 0 0 1 -0.35,-0.75l0,-7.1c0,-0.09 0,-0.13 -0.13,-0.13l-0.46,0c-0.09,0 -0.13,0 -0.13,0.13l0,7c0,0.19 0,0.35 0,0.49a0.85,0.85 0 0 1 -0.09,0.35a0.38,0.38 0 0 1 -0.21,0.2a0.85,0.85 0 0 1 -0.39,0.07l-1.58,0a0.66,0.66 0 0 1 -0.48,-0.15a0.77,0.77 0 0 1 -0.15,-0.55l0,-4.6a0.12,0.12 0 0 0 -0.13,-0.13l-0.46,0a0.12,0.12 0 0 0 -0.14,0.13l0,0.57l-1.27,0a3.24,3.24 0 0 0 -1,0.14a1.87,1.87 0 0 0 -0.77,0.45a2.07,2.07 0 0 0 -0.5,0.8a3.55,3.55 0 0 0 -0.18,1.21a2.38,2.38 0 0 0 0.59,1.76a2.17,2.17 0 0 0 1.58,0.57a2.68,2.68 0 0 0 0.93,-0.14a1.54,1.54 0 0 0 0.59,-0.38a1.19,1.19 0 0 0 0.12,0.58a0.88,0.88 0 0 0 0.31,0.35a1.11,1.11 0 0 0 0.42,0.16a2.42,2.42 0 0 0 0.47,0l1.73,0a1.33,1.33 0 0 0 0.76,-0.19a1.31,1.31 0 0 0 0.42,-0.51a0.93,0.93 0 0 0 0.58,0.57a2.75,2.75 0 0 0 0.86,0.12l0.92,0a2.15,2.15 0 0 0 0.68,-0.11a1.07,1.07 0 0 0 0.56,-0.54a1.52,1.52 0 0 0 0.76,0.59a3.21,3.21 0 0 0 1.05,0.17a2.17,2.17 0 0 0 1.73,-0.68a3.29,3.29 0 0 0 0.58,-2.15a3.24,3.24 0 0 0 -0.58,-2.11a2.12,2.12 0 0 0 -1.78,-0.71zm-9.59,2.77a1.59,1.59 0 0 1 -0.31,1a1.9,1.9 0 0 1 -2.27,0a1.65,1.65 0 0 1 -0.38,-1.22a2,2 0 0 1 0.42,-1.45a1.54,1.54 0 0 1 1.13,-0.36l1.41,0l0,2.03zm10.8,1.63a1.41,1.41 0 0 1 -1.2,0.5a1.38,1.38 0 0 1 -1.19,-0.5a2.63,2.63 0 0 1 -0.37,-1.55a2.76,2.76 0 0 1 0.37,-1.55a1.32,1.32 0 0 1 1.18,-0.56a1.33,1.33 0 0 1 1.2,0.57a2.74,2.74 0 0 1 0.38,1.54a2.62,2.62 0 0 1 -0.34,1.55l-0.03,0z" class="cls-1"/>
  <rect id="svg_4" rx="0.13" height="1.05" width="0.95" y="31.41" x="31.61" class="cls-1"/>
  <rect id="svg_5" rx="0.13" height="1.05" width="0.95" y="31.41" x="29.92" class="cls-1"/>
  <path id="svg_6" d="m36.85,33.52c-1.55,0 -2.32,1 -2.32,2.94c0,0.12 0,0.24 0,0.36s0,0.23 0,0.34a1.75,1.75 0 0 1 -0.08,0.56a1.18,1.18 0 0 1 -0.2,0.37a0.67,0.67 0 0 1 -0.26,0.19a1,1 0 0 1 -0.29,0l-0.8,0a1.6,1.6 0 0 1 -0.93,-0.24a0.84,0.84 0 0 1 -0.35,-0.75l0,-3.4a0.12,0.12 0 0 0 -0.13,-0.13l-0.47,0a0.12,0.12 0 0 0 -0.13,0.13l0,3.33a3.62,3.62 0 0 1 0,0.49a1.06,1.06 0 0 1 -0.08,0.35a0.45,0.45 0 0 1 -0.21,0.2a0.9,0.9 0 0 1 -0.4,0.07l-1,0a1.53,1.53 0 0 1 -0.93,-0.25a0.88,0.88 0 0 1 -0.35,-0.75l0,-1.33a2.8,2.8 0 0 0 -0.16,-1a1.74,1.74 0 0 0 -0.44,-0.69a1.9,1.9 0 0 0 -0.71,-0.4a2.9,2.9 0 0 0 -0.91,-0.13l-1.55,0l2.53,-3c0,-0.06 0,-0.13 -0.05,-0.19l-0.38,-0.3c-0.06,0 -0.11,0 -0.18,0l-2.92,3.44s0,0 0,0.12l0,0.48c0,0.09 0,0.14 0.13,0.14l2.2,0a1.87,1.87 0 0 1 1.27,0.36a1.43,1.43 0 0 1 0.35,1.17l0,1a3.9,3.9 0 0 1 0,0.64a0.8,0.8 0 0 1 -0.16,0.41a0.71,0.71 0 0 1 -0.37,0.21a2.27,2.27 0 0 1 -0.64,0.07l-4.41,0a0.73,0.73 0 0 1 -0.5,-0.15a0.68,0.68 0 0 1 -0.18,-0.55l0,-7.39c0,-0.09 0,-0.13 -0.13,-0.13l-0.46,0c-0.09,0 -0.13,0 -0.13,0.13l0,7.39a1.44,1.44 0 0 0 0.36,1.1a1.65,1.65 0 0 0 1.18,0.34l4.49,0a2.41,2.41 0 0 0 1,-0.17a1.16,1.16 0 0 0 0.55,-0.6a0.88,0.88 0 0 0 0.59,0.62a3.06,3.06 0 0 0 0.83,0.14l1.2,0a1.33,1.33 0 0 0 0.76,-0.19a1.43,1.43 0 0 0 0.43,-0.51a0.89,0.89 0 0 0 0.58,0.57a2.92,2.92 0 0 0 0.94,0.13l0.78,0a2.17,2.17 0 0 0 0.69,-0.11a1.07,1.07 0 0 0 0.56,-0.54a1.52,1.52 0 0 0 0.77,0.57a3.17,3.17 0 0 0 1,0.17a2.14,2.14 0 0 0 1.72,-0.68a3.29,3.29 0 0 0 0.59,-2.15a3.24,3.24 0 0 0 -0.59,-2.11a2.1,2.1 0 0 0 -1.7,-0.69zm1.21,4.4a1.69,1.69 0 0 1 -2.4,0a2.71,2.71 0 0 1 -0.36,-1.55a2.84,2.84 0 0 1 0.36,-1.55a1.35,1.35 0 0 1 1.2,-0.56a1.33,1.33 0 0 1 1.2,0.57a2.74,2.74 0 0 1 0.37,1.54a2.63,2.63 0 0 1 -0.37,1.55z" class="cls-1"/>
  <rect id="svg_7" rx="0.13" height="1.05" width="0.95" y="30.89" x="46.36" class="cls-1"/>
  <rect id="svg_8" rx="0.13" height="1.05" width="0.95" y="30.89" x="44.68" class="cls-1"/>
  <rect id="svg_9" rx="0.13" height="1.05" width="0.95" y="40.17" x="49.96" class="cls-1"/>
  <rect id="svg_10" rx="0.13" height="1.05" width="0.95" y="40.17" x="51.65" class="cls-1"/>
  <path id="svg_11" d="m62.92,38.33l-2.84,0a2.35,2.35 0 0 1 -0.37,-0.15a1.84,1.84 0 0 1 -0.5,-0.38a2.37,2.37 0 0 1 -0.44,-0.66a2.3,2.3 0 0 1 -0.18,-1a2.55,2.55 0 0 1 0.11,-0.74a1.73,1.73 0 0 1 0.32,-0.6a1.55,1.55 0 0 1 0.58,-0.42a2.24,2.24 0 0 1 0.86,-0.15a1.87,1.87 0 0 1 1.54,0.77c0.05,0.06 0.11,0.06 0.18,0l0.4,-0.29a0.12,0.12 0 0 0 0,-0.18a2.55,2.55 0 0 0 -0.86,-0.74a2.63,2.63 0 0 0 -1.28,-0.28a2.78,2.78 0 0 0 -1.39,0.3a2.31,2.31 0 0 0 -1.19,1.59a4.33,4.33 0 0 0 -0.09,0.8a3.08,3.08 0 0 0 0.23,1.27a3,3 0 0 0 0.6,0.86l-1.75,0a1.6,1.6 0 0 1 -0.93,-0.24a0.87,0.87 0 0 1 -0.35,-0.75l0,-7.1c0,-0.09 0,-0.13 -0.13,-0.13l-0.44,0c-0.09,0 -0.13,0 -0.13,0.13l0,7c0,0.19 0,0.35 0,0.49a0.85,0.85 0 0 1 -0.09,0.35a0.38,0.38 0 0 1 -0.21,0.2a0.85,0.85 0 0 1 -0.39,0.07l-1,0a1.65,1.65 0 0 1 -0.93,-0.24a0.87,0.87 0 0 1 -0.35,-0.75l0,-3.47c0,-0.09 0,-0.13 -0.13,-0.13l-0.46,0c-0.09,0 -0.13,0 -0.13,0.13l0,3.33c0,0.19 0,0.35 0,0.49a0.85,0.85 0 0 1 -0.09,0.35a0.38,0.38 0 0 1 -0.21,0.2a0.82,0.82 0 0 1 -0.39,0.07l-1.74,0a0.66,0.66 0 0 1 -0.48,-0.15a0.77,0.77 0 0 1 -0.15,-0.55l0,-4.63a0.12,0.12 0 0 0 -0.14,-0.13l-0.46,0a0.12,0.12 0 0 0 -0.13,0.13l0,0.57l-1.28,0a3.22,3.22 0 0 0 -1,0.14a1.87,1.87 0 0 0 -0.77,0.45a2.07,2.07 0 0 0 -0.5,0.8a3.55,3.55 0 0 0 -0.18,1.21a2.38,2.38 0 0 0 0.59,1.76a2.15,2.15 0 0 0 1.57,0.57a2.7,2.7 0 0 0 0.94,-0.14a1.62,1.62 0 0 0 0.59,-0.38a1.19,1.19 0 0 0 0.12,0.58a1,1 0 0 0 0.3,0.35a1.26,1.26 0 0 0 0.42,0.16a2.61,2.61 0 0 0 0.48,0l1.78,0a1.33,1.33 0 0 0 0.76,-0.19a1.31,1.31 0 0 0 0.42,-0.51a0.93,0.93 0 0 0 0.58,0.57a3,3 0 0 0 1,0.13l1,0a1.35,1.35 0 0 0 0.76,-0.19a1.31,1.31 0 0 0 0.42,-0.51a0.91,0.91 0 0 0 0.58,0.57a2.75,2.75 0 0 0 0.86,0.12l6.08,0a0.12,0.12 0 0 0 0.14,-0.13l0,-0.48c0.01,-0.08 -0.05,-0.12 -0.13,-0.12zm-15.53,-2a1.54,1.54 0 0 1 -0.32,1a1.47,1.47 0 0 1 -1.16,0.38a1.52,1.52 0 0 1 -1.11,-0.37a1.7,1.7 0 0 1 -0.37,-1.22a2,2 0 0 1 0.41,-1.45a1.58,1.58 0 0 1 1.16,-0.41l1.41,0l-0.02,2.07z" class="cls-1"/>
  <rect id="svg_12" rx="0.13" height="1.05" width="0.79" y="31.41" x="69.54" class="cls-1"/>
  <rect id="svg_13" rx="0.13" height="1.05" width="0.95" y="31.41" x="74.06" class="cls-1"/>
  <path id="svg_14" d="m75.55,33.76l-0.47,0a0.12,0.12 0 0 0 -0.13,0.13l0,3.74a0.77,0.77 0 0 1 -0.15,0.55a0.66,0.66 0 0 1 -0.48,0.15l-3.21,0a2.69,2.69 0 0 0 1,-1a3.08,3.08 0 0 0 0.29,-0.67a2.52,2.52 0 0 0 0.1,-0.73a2.69,2.69 0 0 0 -0.16,-1a2.27,2.27 0 0 0 -0.48,-0.77a2.12,2.12 0 0 0 -0.78,-0.51a2.76,2.76 0 0 0 -1.07,-0.19a2.69,2.69 0 0 0 -1,0.2a2.23,2.23 0 0 0 -0.77,0.54a2.56,2.56 0 0 0 -0.49,0.79a2.69,2.69 0 0 0 -0.17,0.93a2.53,2.53 0 0 0 0.37,1.35a3.76,3.76 0 0 0 1,1l-2.73,0a0.75,0.75 0 0 1 -0.5,-0.15a0.72,0.72 0 0 1 -0.17,-0.55l0,-7.33c0,-0.09 0,-0.13 -0.13,-0.13l-0.46,0c-0.09,0 -0.13,0 -0.13,0.13l0,7.39a1.48,1.48 0 0 0 0.35,1.1a1.69,1.69 0 0 0 1.19,0.34l2,0c0.25,0 0.55,0 0.87,0a2.34,2.34 0 0 0 0.93,-0.28a1.92,1.92 0 0 0 0.81,0.28c0.28,0 0.58,0 0.89,0l2.48,0a1.52,1.52 0 0 0 1.18,-0.4a1.91,1.91 0 0 0 0.35,-1.26l0,-3.52a0.12,0.12 0 0 0 -0.33,-0.13zm-4.94,4.06a3.09,3.09 0 0 1 -0.65,0.34a3.09,3.09 0 0 1 -0.65,-0.34a2.29,2.29 0 0 1 -0.55,-0.48a2,2 0 0 1 -0.37,-0.62a2,2 0 0 1 0,-1.43a1.7,1.7 0 0 1 0.36,-0.54a1.73,1.73 0 0 1 0.54,-0.35a1.87,1.87 0 0 1 0.68,-0.11a1.71,1.71 0 0 1 1.22,0.44a1.65,1.65 0 0 1 0.48,1.27a2,2 0 0 1 -0.14,0.72a2,2 0 0 1 -0.37,0.62a2.07,2.07 0 0 1 -0.55,0.48z" class="cls-1"/>
  <rect id="svg_15" rx="0.13" height="1.05" width="0.95" y="31.41" x="75.74" class="cls-1"/>
  <rect id="svg_16" rx="0.13" height="1.05" width="0.95" y="30.89" x="81.45" class="cls-1"/>
  <rect id="svg_17" rx="0.13" height="1.05" width="0.95" y="30.89" x="83.14" class="cls-1"/>
  <rect id="svg_18" rx="0.13" height="1.05" width="0.95" y="40.17" x="88.14" class="cls-1"/>
  <rect id="svg_19" rx="0.13" height="1.05" width="0.95" y="40.17" x="86.46" class="cls-1"/>
  <path id="svg_20" d="m88.15,38.67a1.91,1.91 0 0 0 0.35,-1.26l0,-3.52a0.12,0.12 0 0 0 -0.13,-0.13l-0.47,0a0.12,0.12 0 0 0 -0.13,0.13l0,3.74a0.77,0.77 0 0 1 -0.15,0.55a0.66,0.66 0 0 1 -0.48,0.15l-1.62,0a0.66,0.66 0 0 1 -0.48,-0.15a0.77,0.77 0 0 1 -0.15,-0.55l0,-4.63a0.12,0.12 0 0 0 -0.13,-0.13l-0.47,0a0.12,0.12 0 0 0 -0.13,0.13l0,0.57l-1.28,0a3.22,3.22 0 0 0 -1,0.14a1.87,1.87 0 0 0 -0.77,0.45a2.07,2.07 0 0 0 -0.5,0.8a3.55,3.55 0 0 0 -0.18,1.21a2.38,2.38 0 0 0 0.59,1.76a2.16,2.16 0 0 0 1.57,0.57a2.7,2.7 0 0 0 0.94,-0.14a1.62,1.62 0 0 0 0.59,-0.38a1.19,1.19 0 0 0 0.12,0.58a1,1 0 0 0 0.3,0.35a1.23,1.23 0 0 0 0.46,0.09a2.42,2.42 0 0 0 0.47,0l1.53,0a1.52,1.52 0 0 0 1.15,-0.33zm-4,-2.38a1.59,1.59 0 0 1 -0.31,1a1.9,1.9 0 0 1 -2.27,0a1.65,1.65 0 0 1 -0.38,-1.22a2,2 0 0 1 0.42,-1.45a1.54,1.54 0 0 1 1.13,-0.41l1.41,0l0,2.08z" class="cls-1"/>
  <path id="svg_21" d="m91.66,33.76l-0.46,0c-0.09,0 -0.13,0 -0.13,0.13l0,5.9a1,1 0 0 1 -1.07,1.12l-0.3,0a0.12,0.12 0 0 0 -0.14,0.13l0,0.48c0,0.09 0,0.13 0.14,0.13l0.22,0a1.9,1.9 0 0 0 1.45,-0.5a2,2 0 0 0 0.46,-1.44l0,-5.82c-0.04,-0.09 -0.08,-0.13 -0.17,-0.13z" class="cls-1"/>
  <rect id="svg_22" rx="0.13" height="1.05" width="0.95" y="31.41" x="99.33" class="cls-1"/>
  <rect id="svg_23" rx="0.13" height="1.05" width="0.95" y="31.41" x="97.64" class="cls-1"/>
  <path id="svg_24" d="m108.39,38.33l-2.84,0a2,2 0 0 1 -0.37,-0.15a1.7,1.7 0 0 1 -0.5,-0.38a2.17,2.17 0 0 1 -0.44,-0.66a2.3,2.3 0 0 1 -0.18,-1a2.55,2.55 0 0 1 0.1,-0.74a1.6,1.6 0 0 1 0.33,-0.6a1.47,1.47 0 0 1 0.58,-0.42a2.21,2.21 0 0 1 0.86,-0.15a1.87,1.87 0 0 1 1.53,0.74c0,0.06 0.11,0.06 0.18,0l0.4,-0.29a0.12,0.12 0 0 0 0,-0.18a2.49,2.49 0 0 0 -0.87,-0.74a2.59,2.59 0 0 0 -1.27,-0.28a2.85,2.85 0 0 0 -1.4,0.3a2.36,2.36 0 0 0 -0.81,0.71a2.51,2.51 0 0 0 -0.37,0.88a4.33,4.33 0 0 0 -0.09,0.8a3.08,3.08 0 0 0 0.24,1.26a2.64,2.64 0 0 0 0.6,0.86l-4,0a2.69,2.69 0 0 0 0.95,-1a3.08,3.08 0 0 0 0.29,-0.67a2.52,2.52 0 0 0 0.1,-0.73a2.69,2.69 0 0 0 -0.16,-1a2.27,2.27 0 0 0 -0.48,-0.77a2.12,2.12 0 0 0 -0.78,-0.51a2.76,2.76 0 0 0 -1.07,-0.19a2.69,2.69 0 0 0 -1.05,0.2a2.23,2.23 0 0 0 -0.77,0.54a2.36,2.36 0 0 0 -0.48,0.79a2.48,2.48 0 0 0 -0.18,0.93a2.45,2.45 0 0 0 0.38,1.35a3.57,3.57 0 0 0 0.94,1l-2.73,0a0.76,0.76 0 0 1 -0.5,-0.15a0.72,0.72 0 0 1 -0.17,-0.55l0,-7.29c0,-0.09 0,-0.13 -0.13,-0.13l-0.46,0c-0.09,0 -0.13,0 -0.13,0.13l0,7.39a1.48,1.48 0 0 0 0.35,1.1a1.69,1.69 0 0 0 1.19,0.34l2,0c0.25,0 0.55,0 0.88,0a2.29,2.29 0 0 0 0.92,-0.28a1.92,1.92 0 0 0 0.81,0.28c0.28,0 0.58,0 0.89,0l7.71,0a0.12,0.12 0 0 0 0.13,-0.13l0,-0.48c0,-0.09 -0.04,-0.13 -0.13,-0.13zm-8.77,-0.51a3.09,3.09 0 0 1 -0.65,0.34a3.36,3.36 0 0 1 -0.65,-0.34a2.29,2.29 0 0 1 -0.55,-0.48a2,2 0 0 1 -0.37,-0.62a2,2 0 0 1 0,-1.43a1.7,1.7 0 0 1 0.36,-0.54a1.73,1.73 0 0 1 0.54,-0.35a1.9,1.9 0 0 1 0.68,-0.11a1.71,1.71 0 0 1 1.22,0.44a1.65,1.65 0 0 1 0.48,1.27a1.78,1.78 0 0 1 -0.14,0.72a2,2 0 0 1 -0.37,0.62a2.07,2.07 0 0 1 -0.55,0.48z" class="cls-1"/>
  <rect id="svg_25" height="2.25" width="2.21" y="8.6" x="64.43" class="cls-1"/>
  <rect id="svg_26" height="2.25" width="2.21" y="8.6" x="60.57" class="cls-1"/>
  <path id="svg_27" d="m69.89,15.28a2.31,2.31 0 0 1 -0.85,2.11a4,4 0 0 1 -2.13,0.39l-5.57,0a4.85,4.85 0 0 1 -2.78,-0.65a3.14,3.14 0 0 1 -1.16,-2.78l0,-3.48l-2.25,0l0,3.48q0,5.74 6.46,5.74l7.39,0a2.92,2.92 0 0 0 3.15,-3.25l0,-6l-2.24,0l-0.02,4.44z" class="cls-1"/>
  <path id="svg_28" d="m107.11,15.54c0,1.49 -0.57,2.24 -1.73,2.24l-2.21,0a4.23,4.23 0 0 0 0.46,-2.48l0,-4.43l-2.29,0l0,4.65c0,1.51 -0.57,2.26 -1.73,2.26l-2.11,0l0,-0.12a5,5 0 0 0 0.37,-2.36l0,-4.43l-2.3,0l0,4.51c0,1.61 -0.57,2.4 -1.73,2.4l-3.09,0l0,-0.59a4.83,4.83 0 0 0 -1.25,-3.39a4.22,4.22 0 0 0 -3.29,-1.36a4.39,4.39 0 0 0 -3.31,1.32a4.63,4.63 0 0 0 -1.26,3.35c0,0.22 0,0.45 0,0.67l-2.77,0a3.08,3.08 0 0 1 -1.74,-0.35a2.28,2.28 0 0 1 -0.65,-1.95l0,-8.48l-2.26,0l0,9.4a4,4 0 0 0 0.82,2.64a3,3 0 0 0 2.51,1.05l5,0a4.66,4.66 0 0 0 7.31,0l15.58,0c2.32,0 3.94,-1.91 3.94,-4.83l0,-4.39l-2.29,0l0.02,4.67zm-19.22,3.46a1.94,1.94 0 0 1 -1.62,0.77a2.42,2.42 0 0 1 -2.3,-2.66a3,3 0 0 1 0.53,-1.79a1.93,1.93 0 0 1 1.65,-0.81a2.09,2.09 0 0 1 1.72,0.83a3.09,3.09 0 0 1 0.55,1.85a3,3 0 0 1 -0.53,1.81z" class="cls-1"/>
  <path id="svg_29" d="m155.58,30.11l0,-3.87a0.35,0.35 0 0 0 -0.15,-0.28l-15.72,-10.29a0.35,0.35 0 0 0 -0.37,0l-2.88,1.92a0.34,0.34 0 0 0 0,0.56l18.6,12.24a0.33,0.33 0 0 0 0.52,-0.28z" class="cls-2"/>
  <path id="svg_30" d="m140.28,7.39l11.93,8a0.35,0.35 0 0 0 0.4,0l3,-2.34a0.33,0.33 0 0 0 0,-0.54l-15.42,-10.38a0.33,0.33 0 0 0 -0.38,0l-13.38,9.56a0.34,0.34 0 0 0 0,0.57l3.57,1.92a0.34,0.34 0 0 0 0.36,0l9.59,-6.77a0.33,0.33 0 0 1 0.33,-0.02z" class="cls-3"/>
  <path id="svg_31" d="m140.7,40.09l-11.93,-8a0.33,0.33 0 0 0 -0.39,0l-3,2.34a0.34,0.34 0 0 0 0,0.55l15.41,10.3a0.33,0.33 0 0 0 0.38,0l13.37,-9.56a0.32,0.32 0 0 0 0,-0.56l-3.54,-1.87a0.34,0.34 0 0 0 -0.35,0l-9.6,6.77a0.35,0.35 0 0 1 -0.35,0.03z" class="cls-3"/>
  <path id="svg_32" d="m123.76,18l0,3.86a0.34,0.34 0 0 0 0.15,0.29l15.71,10.28a0.32,0.32 0 0 0 0.37,0l2.88,-1.92a0.33,0.33 0 0 0 0,-0.56l-18.59,-12.22a0.33,0.33 0 0 0 -0.52,0.27z" class="cls-2"/>
 </g>
</svg>