<?xml version="1.0" encoding="UTF-8"?><svg xmlns="http://www.w3.org/2000/svg" width="59.798mm" height="58.666mm" xmlns:xlink="http://www.w3.org/1999/xlink" viewBox="0 0 169.506 166.297"><defs><style>.cls-1{fill:url(#linear-gradient-4);mix-blend-mode:soft-light;opacity:.5;}.cls-1,.cls-2,.cls-3,.cls-4,.cls-5,.cls-6,.cls-7,.cls-8,.cls-9,.cls-10,.cls-11,.cls-12,.cls-13,.cls-14,.cls-15,.cls-16,.cls-17,.cls-18,.cls-19,.cls-20,.cls-21,.cls-22,.cls-23,.cls-24,.cls-25,.cls-26,.cls-27,.cls-28,.cls-29,.cls-30,.cls-31,.cls-32,.cls-33,.cls-34{stroke-width:0px;}.cls-2,.cls-4,.cls-5,.cls-35,.cls-29{mix-blend-mode:multiply;}.cls-2,.cls-36,.cls-33{fill:#afb0b0;}.cls-3{fill:url(#New_Gradient_Swatch-2);}.cls-4{fill:url(#linear-gradient-2);}.cls-5{fill:url(#linear-gradient-3);}.cls-37{clip-path:url(#clippath);}.cls-6{fill:none;}.cls-7{fill:url(#linear-gradient);}.cls-8{fill:url(#linear-gradient-11);}.cls-9{fill:url(#linear-gradient-12);}.cls-10{fill:url(#linear-gradient-13);}.cls-11{fill:url(#linear-gradient-10);}.cls-12{fill:url(#linear-gradient-17);}.cls-13{fill:url(#linear-gradient-16);}.cls-14{fill:url(#linear-gradient-19);}.cls-15{fill:url(#linear-gradient-15);}.cls-16{fill:url(#linear-gradient-23);}.cls-17{fill:url(#linear-gradient-21);}.cls-18{fill:url(#linear-gradient-18);}.cls-19{fill:url(#linear-gradient-14);}.cls-20{fill:url(#linear-gradient-22);}.cls-21{fill:url(#linear-gradient-20);}.cls-22{fill:url(#linear-gradient-24);}.cls-38,.cls-36{font-family:Tajawal-Bold, Tajawal;font-size:32.19px;font-weight:700;}.cls-23{fill:url(#New_Gradient_Swatch);}.cls-24{fill:url(#linear-gradient-8);}.cls-25{fill:url(#linear-gradient-9);}.cls-26{fill:url(#linear-gradient-7);}.cls-27{fill:url(#linear-gradient-5);}.cls-28{fill:url(#linear-gradient-6);}.cls-29{opacity:.2;}.cls-29,.cls-32{fill:#248ebf;}.cls-39{isolation:isolate;}.cls-31{fill:#3f3f3f;}.cls-34{fill:#fff;}</style><linearGradient id="linear-gradient" x1="38.383" y1="144.407" x2="163.849" y2="-27.179" gradientTransform="translate(-1.26 3.928) rotate(12.797)" gradientUnits="userSpaceOnUse"><stop offset="0" stop-color="#fff5ad"/><stop offset=".312" stop-color="#c18215"/><stop offset=".357" stop-color="#c88f27"/><stop offset=".545" stop-color="#e5c66e"/><stop offset=".679" stop-color="#f7e79b"/><stop offset=".747" stop-color="#fff5ad"/><stop offset=".994" stop-color="#f9c100"/></linearGradient><linearGradient id="linear-gradient-2" x1="106.092" y1="120.517" x2="99.022" y2="8.918" gradientTransform="translate(-1.26 3.928) rotate(12.797)" gradientUnits="userSpaceOnUse"><stop offset="0" stop-color="#fff5ad" stop-opacity="0"/><stop offset=".994" stop-color="#be9814"/></linearGradient><linearGradient id="linear-gradient-3" x1="103.678" y1="220.131" x2="85.798" y2="90.715" gradientTransform="matrix(1,0,0,1,0,0)" xlink:href="#linear-gradient-2"/><linearGradient id="New_Gradient_Swatch" x1="50.541" y1="148.73" x2="111.519" y2="31.855" gradientUnits="userSpaceOnUse"><stop offset="0" stop-color="#369"/><stop offset=".341" stop-color="#369"/><stop offset="1" stop-color="#248ebf"/></linearGradient><linearGradient id="linear-gradient-4" x1="84.884" y1="67.682" x2="84.532" y2="24.76" gradientUnits="userSpaceOnUse"><stop offset="0" stop-color="#fff"/><stop offset="1" stop-color="#fff" stop-opacity="0"/></linearGradient><linearGradient id="linear-gradient-5" x1="45.15" y1="83.148" x2="124.355" y2="83.148" gradientTransform="matrix(1,0,0,1,0,0)" xlink:href="#linear-gradient"/><clipPath id="clippath"><circle class="cls-6" cx="84.752" cy="83.148" r="66.858" transform="translate(-33.971 84.283) rotate(-45)"/></clipPath><linearGradient id="linear-gradient-6" x1="32.914" y1="139.396" x2="128.591" y2="35.662" gradientTransform="matrix(1,0,0,1,0,0)" xlink:href="#linear-gradient"/><linearGradient id="New_Gradient_Swatch-2" x1="11.699" y1="83.148" x2="157.887" y2="83.148" xlink:href="#New_Gradient_Swatch"/><linearGradient id="linear-gradient-7" x1="105.107" y1="93.013" x2="105.107" y2="72.218" gradientUnits="userSpaceOnUse"><stop offset="0" stop-color="#fff5ad"/><stop offset=".312" stop-color="#e9cd8e"/><stop offset=".536" stop-color="#f5e39f"/><stop offset=".747" stop-color="#fff5ad"/><stop offset=".994" stop-color="#f9c100"/></linearGradient><linearGradient id="linear-gradient-8" x1="68.242" y1="95.067" x2="68.242" y2="75.401" xlink:href="#linear-gradient-7"/><linearGradient id="linear-gradient-9" x1="68.242" y1="95.067" x2="68.242" y2="75.401" xlink:href="#linear-gradient-7"/><linearGradient id="linear-gradient-10" x1="68.242" y1="95.067" x2="68.242" y2="75.401" xlink:href="#linear-gradient-7"/><linearGradient id="linear-gradient-11" x1="43.024" y1="41.766" x2="131.062" y2="41.766" gradientUnits="userSpaceOnUse"><stop offset=".006" stop-color="#ffe392"/><stop offset=".253" stop-color="#fffadd"/><stop offset=".348" stop-color="#fcf1cb"/><stop offset=".536" stop-color="#f4dc9f"/><stop offset=".688" stop-color="#eeca77"/><stop offset="1" stop-color="#fffadd"/></linearGradient><linearGradient id="linear-gradient-12" x1="39.844" y1="124.949" x2="132.067" y2="124.949" xlink:href="#linear-gradient-11"/><linearGradient id="linear-gradient-13" x1="39.844" y1="124.949" x2="132.067" y2="124.949" xlink:href="#linear-gradient-11"/><linearGradient id="linear-gradient-14" x1="39.844" y1="124.949" x2="132.067" y2="124.949" xlink:href="#linear-gradient-11"/><linearGradient id="linear-gradient-15" x1="39.844" y1="124.949" x2="132.067" y2="124.949" xlink:href="#linear-gradient-11"/><linearGradient id="linear-gradient-16" x1="39.844" y1="124.949" x2="132.067" y2="124.949" xlink:href="#linear-gradient-11"/><linearGradient id="linear-gradient-17" x1="39.844" y1="124.949" x2="132.067" y2="124.949" xlink:href="#linear-gradient-11"/><linearGradient id="linear-gradient-18" x1="39.844" y1="124.949" x2="132.067" y2="124.949" xlink:href="#linear-gradient-11"/><linearGradient id="linear-gradient-19" x1="39.844" y1="124.949" x2="132.067" y2="124.949" xlink:href="#linear-gradient-11"/><linearGradient id="linear-gradient-20" x1="39.844" y1="124.949" x2="132.067" y2="124.949" xlink:href="#linear-gradient-11"/><linearGradient id="linear-gradient-21" x1="39.844" y1="124.949" x2="132.067" y2="124.949" xlink:href="#linear-gradient-11"/><linearGradient id="linear-gradient-22" x1="39.844" y1="124.949" x2="132.067" y2="124.949" xlink:href="#linear-gradient-11"/><linearGradient id="linear-gradient-23" x1="31.855" y1="111.872" x2="34.579" y2="75.682" gradientUnits="userSpaceOnUse"><stop offset=".006" stop-color="#f9c100"/><stop offset=".253" stop-color="#fff5ad"/><stop offset=".321" stop-color="#f7e79b"/><stop offset=".455" stop-color="#e5c66e"/><stop offset=".643" stop-color="#c88f27"/><stop offset=".688" stop-color="#c18215"/><stop offset="1" stop-color="#fff5ad"/></linearGradient><linearGradient id="linear-gradient-24" x1="132.877" y1="111.872" x2="135.601" y2="75.682" xlink:href="#linear-gradient-23"/></defs><g class="cls-39"><g id="Layer_1"><path class="cls-7" d="M162.914,108.286c.36,2.484.25,4.963-.285,7.317-1.201,5.289-4.529,9.975-9.389,12.825-2.152,1.257-4.02,2.893-5.544,4.802-1.517,1.919-2.689,4.11-3.431,6.483-1.214,3.882-3.559,7.211-6.597,9.644-3.047,2.431-6.807,3.979-10.863,4.305-2.476.205-4.871.862-7.07,1.924-2.2,1.062-4.205,2.528-5.91,4.34-4.905,5.243-12.167,7.4-19.02,5.843-.922-.209-1.849-.485-2.757-.839-.908-.354-1.834-.629-2.774-.843-3.857-.876-7.912-.596-11.642.858-3.799,1.474-7.855,1.718-11.651.856-3.804-.864-7.357-2.835-10.138-5.804-2.736-2.922-6.272-4.926-10.129-5.802-.94-.213-1.894-.365-2.866-.438-.972-.073-1.926-.225-2.857-.436-6.853-1.556-12.471-6.639-14.63-13.485-.746-2.368-1.922-4.557-3.447-6.465-1.525-1.908-3.401-3.535-5.555-4.791-3.517-2.046-6.241-5.067-7.929-8.573-1.698-3.508-2.366-7.522-1.784-11.547.355-2.46.245-4.943-.303-7.331-.541-2.377-1.528-4.662-2.917-6.723-1.425-2.107-2.399-4.407-2.929-6.791-.662-2.903-.659-5.924,0-8.823.537-2.363,1.499-4.649,2.905-6.731,1.391-2.058,2.363-4.342,2.905-6.731.541-2.381.651-4.86.287-7.326-.369-2.486-.25-4.963.285-7.317,1.201-5.289,4.529-9.975,9.389-12.825,2.141-1.251,4.018-2.885,5.535-4.804,1.524-1.908,2.696-4.1,3.438-6.472,1.216-3.89,3.549-7.204,6.597-9.644,3.038-2.433,6.797-3.972,10.855-4.307,2.485-.202,4.879-.86,7.079-1.922,2.202-1.071,4.207-2.537,5.903-4.351,4.903-5.234,12.165-7.391,19.018-5.835.931.212,1.857.487,2.765.841.908.354,1.834.629,2.774.843,3.857.876,7.912.596,11.642-.858,3.789-1.468,7.846-1.72,11.651-.856,3.795.862,7.346,2.842,10.138,5.804,3.399,3.627,8.039,5.854,12.995,6.24.972.073,1.926.225,2.849.434,6.853,1.556,12.471,6.639,14.632,13.477.755,2.37,1.93,4.559,3.454,6.475,1.525,1.908,3.401,3.535,5.546,4.789,1.355.788,2.592,1.725,3.693,2.779,1.765,1.667,3.202,3.637,4.245,5.796,1.687,3.515,2.368,7.513,1.784,11.547-.355,2.46-.245,4.943.296,7.32.548,2.388,1.526,4.67,2.926,6.725,3.152,4.67,4.128,10.343,2.928,15.623-.537,2.363-1.506,4.638-2.903,6.723-1.393,2.067-2.365,4.35-2.905,6.731-.543,2.39-.653,4.868-.287,7.326Z"/><path class="cls-4" d="M162.914,108.286c.36,2.484.25,4.963-.285,7.317-1.201,5.289-4.529,9.975-9.389,12.825-2.152,1.257-4.02,2.893-5.544,4.802-1.517,1.919-2.689,4.11-3.431,6.483-1.214,3.882-3.559,7.211-6.597,9.644-3.047,2.431-6.807,3.979-10.863,4.305-2.476.205-4.871.862-7.07,1.924-2.2,1.062-4.205,2.528-5.91,4.34-4.905,5.243-12.167,7.4-19.02,5.843-.922-.209-1.849-.485-2.757-.839-.908-.354-1.834-.629-2.774-.843-3.857-.876-7.912-.596-11.642.858-3.799,1.474-7.855,1.718-11.651.856-3.804-.864-7.357-2.835-10.138-5.804-2.736-2.922-6.272-4.926-10.129-5.802-.94-.213-1.894-.365-2.866-.438-.972-.073-1.926-.225-2.857-.436-6.853-1.556-12.471-6.639-14.63-13.485-.746-2.368-1.922-4.557-3.447-6.465-1.525-1.908-3.401-3.535-5.555-4.791-3.517-2.046-6.241-5.067-7.929-8.573-1.698-3.508-2.366-7.522-1.784-11.547.355-2.46.245-4.943-.303-7.331-.541-2.377-1.528-4.662-2.917-6.723-1.425-2.107-2.399-4.407-2.929-6.791,17.85-14.577,43.842-4.505,57.419-17.938,47.427-46.921,82.79-36.262,98.915-29.181,1.765,1.667,3.202,3.637,4.245,5.796,1.687,3.515,2.368,7.513,1.784,11.547-.355,2.46-.245,4.943.296,7.32.548,2.388,1.526,4.67,2.926,6.725,3.152,4.67,4.128,10.343,2.928,15.623-.537,2.363-1.506,4.638-2.903,6.723-1.393,2.067-2.365,4.35-2.905,6.731-.543,2.39-.653,4.868-.287,7.326Z"/><circle class="cls-31" cx="84.752" cy="83.148" r="66.858" transform="translate(-33.971 84.283) rotate(-45)"/><circle class="cls-5" cx="84.752" cy="83.148" r="70.749"/><path class="cls-23" d="M146.447,83.149c0,34.074-27.623,61.688-61.697,61.688-31.335,0-57.219-23.362-61.165-53.634-.342-2.631-.523-5.325-.523-8.054,0-11.154,2.964-21.614,8.145-30.65,10.631-18.542,30.632-31.038,53.543-31.038,18.451,0,35.011,8.1,46.309,20.929,2.748,3.108,5.18,6.496,7.253,10.118,5.18,9.028,8.136,19.488,8.136,30.641Z"/><path class="cls-1" d="M138.312,52.508c-14.307,9.514-33.038,15.28-53.561,15.28s-39.245-5.766-53.543-15.289c10.631-18.542,30.632-31.038,53.543-31.038,18.451,0,35.011,8.1,46.309,20.929,2.748,3.108,5.18,6.496,7.253,10.118Z"/><circle class="cls-2" cx="84.752" cy="83.148" r="42.617"/><path class="cls-27" d="M84.752,43.546c-21.872,0-39.603,17.731-39.603,39.603s17.731,39.603,39.603,39.603,39.602-17.731,39.602-39.603-17.731-39.603-39.602-39.603ZM84.752,120.211c-20.469,0-37.063-16.594-37.063-37.063s16.594-37.063,37.063-37.063,37.063,16.594,37.063,37.063-16.594,37.063-37.063,37.063Z"/><circle class="cls-32" cx="84.752" cy="83.148" r="35.039" transform="translate(-33.971 84.283) rotate(-45)"/><path class="cls-29" d="M84.752,17.812c-36.084,0-65.336,29.252-65.336,65.336s29.252,65.336,65.336,65.336,65.336-29.252,65.336-65.336S120.836,17.812,84.752,17.812ZM84.752,141.31c-32.122,0-58.162-26.04-58.162-58.162s26.04-58.162,58.162-58.162,58.162,26.04,58.162,58.162-26.04,58.162-58.162,58.162Z"/><g class="cls-37"><rect class="cls-2" x="11.699" y="65.594" width="146.188" height="38.913"/><rect class="cls-28" x="11.699" y="63.692" width="146.188" height="38.913"/><rect class="cls-3" x="11.699" y="66.494" width="146.188" height="33.309"/><path class="cls-2" d="M84.752,14.052C46.591,14.052,15.656,44.987,15.656,83.148s30.935,69.096,69.096,69.096,69.096-30.936,69.096-69.096S122.913,14.052,84.752,14.052ZM84.752,144.658c-33.971,0-61.51-27.539-61.51-61.51s27.539-61.51,61.51-61.51,61.51,27.539,61.51,61.51-27.539,61.51-61.51,61.51Z"/></g><g class="cls-35"><text class="cls-38" transform="translate(93.757 94.562)"><tspan x="0" y="0">21</tspan></text><text class="cls-36" transform="translate(93.757 94.562)"><tspan x="0" y="0">21</tspan></text></g><path class="cls-30" d="M93.679,93.013v-3.573c.515-.58,1.202-1.363,2.06-2.35,1.353-1.502,2.35-2.64,2.994-3.412,1.437-1.718,2.338-2.892,2.704-3.526.364-.633.547-1.335.547-2.108,0-.643-.237-1.179-.709-1.61-.472-.428-1.073-.643-1.802-.643-1.267,0-2.661.515-4.185,1.545l-1.77-2.575c2.146-1.695,4.389-2.544,6.728-2.544,1.868,0,3.359.504,4.475,1.513,1.095.987,1.641,2.35,1.641,4.088,0,1.288-.424,2.635-1.271,4.04-.848,1.407-2.495,3.493-4.942,6.262-.601.686-1.041,1.191-1.32,1.512h7.307v3.38h-12.458Z"/><path class="cls-30" d="M116.696,72.636v20.376h-4.217v-15.58c-.301.194-.74.462-1.32.805-.837.494-1.438.869-1.802,1.126-.279-.472-.752-1.255-1.417-2.35l-.193-.29c-.15-.278-.269-.482-.354-.611.686-.493,1.77-1.233,3.251-2.221.773-.515,1.384-.934,1.835-1.255h4.217Z"/><path class="cls-26" d="M93.679,93.013v-3.573c.515-.58,1.202-1.363,2.06-2.35,1.353-1.502,2.35-2.64,2.994-3.412,1.437-1.718,2.338-2.892,2.704-3.526.364-.633.547-1.335.547-2.108,0-.643-.237-1.179-.709-1.61-.472-.428-1.073-.643-1.802-.643-1.267,0-2.661.515-4.185,1.545l-1.77-2.575c2.146-1.695,4.389-2.544,6.728-2.544,1.868,0,3.359.504,4.475,1.513,1.095.987,1.641,2.35,1.641,4.088,0,1.288-.424,2.635-1.271,4.04-.848,1.407-2.495,3.493-4.942,6.262-.601.686-1.041,1.191-1.32,1.512h7.307v3.38h-12.458Z"/><path class="cls-26" d="M116.696,72.636v20.376h-4.217v-15.58c-.301.194-.74.462-1.32.805-.837.494-1.438.869-1.802,1.126-.279-.472-.752-1.255-1.417-2.35l-.193-.29c-.15-.278-.269-.482-.354-.611.686-.493,1.77-1.233,3.251-2.221.773-.515,1.384-.934,1.835-1.255h4.217Z"/><g class="cls-35"><path class="cls-30" d="M51.652,96.287v-6.311c0-1.437.422-2.585,1.268-3.447.743-.743,1.739-1.165,2.99-1.267-.456-.71-.685-1.647-.685-2.813,0-1.858.507-3.328,1.521-4.409.896-.946,2.078-1.419,3.548-1.419,1.504,0,2.678.481,3.523,1.444.726.828,1.089,1.909,1.089,3.244v3.016c-.017,1.25-.439,2.222-1.267,2.914-.828.693-1.994,1.048-3.497,1.064h-3.523c-.642,0-1.098.14-1.368.418-.271.279-.405.748-.405,1.406v4.486l-3.193,1.673ZM61.714,81.259c0-1.115-.474-1.673-1.42-1.673-.607,0-1.086.245-1.432.734-.347.49-.52,1.166-.52,2.028,0,1.926.634,2.889,1.9,2.889.98,0,1.471-.473,1.471-1.419v-2.56Z"/><path class="cls-30" d="M81.252,85.238v3.066h-3.117c-.118,1.521-.794,2.737-2.027,3.649-1.014.743-2.196,1.115-3.548,1.115-1.064,0-2.104-.288-3.117-.862v-2.762c.912.523,1.825.785,2.737.785.709,0,1.339-.194,1.888-.583s.85-.853.899-1.394c-.135-.017-.346-.033-.633-.051-.288-.033-.507-.059-.659-.076-1.74-.186-3.084-.87-4.029-2.053-.795-.996-1.191-2.204-1.191-3.624,0-1.858.507-3.328,1.521-4.409.896-.946,2.078-1.419,3.548-1.419,1.504,0,2.678.481,3.522,1.444.727.828,1.09,1.909,1.09,3.244v3.928h3.117ZM74.967,81.259c0-1.115-.481-1.673-1.444-1.673-1.284,0-1.926.921-1.926,2.763,0,1.639.743,2.551,2.23,2.736.236.051.616.094,1.14.127v-3.953Z"/><path class="cls-30" d="M81.1,93.955c-.507,0-.912-.152-1.217-.456-.304-.304-.456-.719-.456-1.242,0-1.098.558-1.646,1.673-1.646.507,0,.908.147,1.204.443s.443.696.443,1.203c0,1.132-.55,1.698-1.647,1.698ZM79.731,88.304v-3.066h2.281c.642,0,1.098-.14,1.368-.418.271-.279.406-.748.406-1.407v-4.688l3.192-1.672v6.513c0,1.538-.473,2.737-1.419,3.599-.828.761-1.909,1.141-3.244,1.141h-2.585ZM85.003,93.955c-.507,0-.912-.152-1.216-.456-.305-.304-.456-.719-.456-1.242,0-1.098.557-1.646,1.672-1.646.507,0,.908.147,1.204.443s.443.696.443,1.203c0,1.132-.549,1.698-1.647,1.698Z"/><path class="cls-33" d="M51.652,96.287v-6.311c0-1.437.422-2.585,1.268-3.447.743-.743,1.739-1.165,2.99-1.267-.456-.71-.685-1.647-.685-2.813,0-1.858.507-3.328,1.521-4.409.896-.946,2.078-1.419,3.548-1.419,1.504,0,2.678.481,3.523,1.444.726.828,1.089,1.909,1.089,3.244v3.016c-.017,1.25-.439,2.222-1.267,2.914-.828.693-1.994,1.048-3.497,1.064h-3.523c-.642,0-1.098.14-1.368.418-.271.279-.405.748-.405,1.406v4.486l-3.193,1.673ZM61.714,81.259c0-1.115-.474-1.673-1.42-1.673-.607,0-1.086.245-1.432.734-.347.49-.52,1.166-.52,2.028,0,1.926.634,2.889,1.9,2.889.98,0,1.471-.473,1.471-1.419v-2.56Z"/><path class="cls-33" d="M81.252,85.238v3.066h-3.117c-.118,1.521-.794,2.737-2.027,3.649-1.014.743-2.196,1.115-3.548,1.115-1.064,0-2.104-.288-3.117-.862v-2.762c.912.523,1.825.785,2.737.785.709,0,1.339-.194,1.888-.583s.85-.853.899-1.394c-.135-.017-.346-.033-.633-.051-.288-.033-.507-.059-.659-.076-1.74-.186-3.084-.87-4.029-2.053-.795-.996-1.191-2.204-1.191-3.624,0-1.858.507-3.328,1.521-4.409.896-.946,2.078-1.419,3.548-1.419,1.504,0,2.678.481,3.522,1.444.727.828,1.09,1.909,1.09,3.244v3.928h3.117ZM74.967,81.259c0-1.115-.481-1.673-1.444-1.673-1.284,0-1.926.921-1.926,2.763,0,1.639.743,2.551,2.23,2.736.236.051.616.094,1.14.127v-3.953Z"/><path class="cls-33" d="M81.1,93.955c-.507,0-.912-.152-1.217-.456-.304-.304-.456-.719-.456-1.242,0-1.098.558-1.646,1.673-1.646.507,0,.908.147,1.204.443s.443.696.443,1.203c0,1.132-.55,1.698-1.647,1.698ZM79.731,88.304v-3.066h2.281c.642,0,1.098-.14,1.368-.418.271-.279.406-.748.406-1.407v-4.688l3.192-1.672v6.513c0,1.538-.473,2.737-1.419,3.599-.828.761-1.909,1.141-3.244,1.141h-2.585ZM85.003,93.955c-.507,0-.912-.152-1.216-.456-.305-.304-.456-.719-.456-1.242,0-1.098.557-1.646,1.672-1.646.507,0,.908.147,1.204.443s.443.696.443,1.203c0,1.132-.549,1.698-1.647,1.698Z"/></g><path class="cls-30" d="M50.577,95.067v-6.311c0-1.435.423-2.585,1.268-3.447.743-.743,1.74-1.166,2.99-1.267-.456-.71-.685-1.647-.685-2.813,0-1.858.507-3.328,1.521-4.409.895-.946,2.078-1.419,3.548-1.419,1.504,0,2.677.481,3.523,1.444.726.828,1.09,1.91,1.09,3.244v3.015c-.017,1.251-.44,2.222-1.267,2.914-.828.693-1.994,1.048-3.498,1.065h-3.523c-.642,0-1.098.14-1.369.418-.27.279-.405.748-.405,1.407v4.486l-3.193,1.672ZM60.639,80.039c0-1.115-.474-1.672-1.419-1.672-.608,0-1.086.245-1.432.735-.347.49-.52,1.166-.52,2.028,0,1.926.633,2.889,1.9,2.889.98,0,1.47-.473,1.47-1.419v-2.56Z"/><path class="cls-30" d="M80.179,84.018v3.066h-3.117c-.118,1.52-.794,2.737-2.028,3.65-1.014.743-2.196,1.115-3.548,1.115-1.065,0-2.104-.288-3.117-.862v-2.762c.913.523,1.824.786,2.737.786.71,0,1.339-.194,1.888-.583s.849-.853.9-1.394c-.136-.016-.347-.034-.633-.05-.288-.034-.507-.06-.659-.076-1.741-.186-3.084-.87-4.029-2.053-.794-.997-1.192-2.206-1.192-3.625,0-1.858.507-3.328,1.521-4.409.895-.946,2.078-1.419,3.548-1.419,1.504,0,2.677.481,3.523,1.444.726.828,1.09,1.91,1.09,3.244v3.928h3.117ZM73.894,80.039c0-1.115-.482-1.672-1.445-1.672-1.284,0-1.925.92-1.925,2.762,0,1.639.743,2.551,2.23,2.737.237.051.616.093,1.141.127v-3.954Z"/><path class="cls-30" d="M80.026,92.735c-.507,0-.913-.152-1.217-.456s-.456-.718-.456-1.242c0-1.098.558-1.647,1.673-1.647.506,0,.908.148,1.203.444s.444.697.444,1.203c0,1.132-.55,1.698-1.647,1.698ZM78.657,87.084v-3.066h2.281c.642,0,1.098-.14,1.369-.419.27-.278.405-.747.405-1.406v-4.689l3.193-1.673v6.513c0,1.538-.474,2.737-1.419,3.599-.828.761-1.91,1.141-3.244,1.141h-2.585ZM83.929,92.735c-.507,0-.913-.152-1.217-.456s-.456-.718-.456-1.242c0-1.098.557-1.647,1.673-1.647.506,0,.908.148,1.203.444s.444.697.444,1.203c0,1.132-.55,1.698-1.647,1.698Z"/><path class="cls-24" d="M50.577,95.067v-6.311c0-1.435.423-2.585,1.268-3.447.743-.743,1.74-1.166,2.99-1.267-.456-.71-.685-1.647-.685-2.813,0-1.858.507-3.328,1.521-4.409.895-.946,2.078-1.419,3.548-1.419,1.504,0,2.677.481,3.523,1.444.726.828,1.09,1.91,1.09,3.244v3.015c-.017,1.251-.44,2.222-1.267,2.914-.828.693-1.994,1.048-3.498,1.065h-3.523c-.642,0-1.098.14-1.369.418-.27.279-.405.748-.405,1.407v4.486l-3.193,1.672ZM60.639,80.039c0-1.115-.474-1.672-1.419-1.672-.608,0-1.086.245-1.432.735-.347.49-.52,1.166-.52,2.028,0,1.926.633,2.889,1.9,2.889.98,0,1.47-.473,1.47-1.419v-2.56Z"/><path class="cls-25" d="M80.179,84.018v3.066h-3.117c-.118,1.52-.794,2.737-2.028,3.65-1.014.743-2.196,1.115-3.548,1.115-1.065,0-2.104-.288-3.117-.862v-2.762c.913.523,1.824.786,2.737.786.71,0,1.339-.194,1.888-.583s.849-.853.9-1.394c-.136-.016-.347-.034-.633-.05-.288-.034-.507-.06-.659-.076-1.741-.186-3.084-.87-4.029-2.053-.794-.997-1.192-2.206-1.192-3.625,0-1.858.507-3.328,1.521-4.409.895-.946,2.078-1.419,3.548-1.419,1.504,0,2.677.481,3.523,1.444.726.828,1.09,1.91,1.09,3.244v3.928h3.117ZM73.894,80.039c0-1.115-.482-1.672-1.445-1.672-1.284,0-1.925.92-1.925,2.762,0,1.639.743,2.551,2.23,2.737.237.051.616.093,1.141.127v-3.954Z"/><path class="cls-11" d="M80.026,92.735c-.507,0-.913-.152-1.217-.456s-.456-.718-.456-1.242c0-1.098.558-1.647,1.673-1.647.506,0,.908.148,1.203.444s.444.697.444,1.203c0,1.132-.55,1.698-1.647,1.698ZM78.657,87.084v-3.066h2.281c.642,0,1.098-.14,1.369-.419.27-.278.405-.747.405-1.406v-4.689l3.193-1.673v6.513c0,1.538-.474,2.737-1.419,3.599-.828.761-1.91,1.141-3.244,1.141h-2.585ZM83.929,92.735c-.507,0-.913-.152-1.217-.456s-.456-.718-.456-1.242c0-1.098.557-1.647,1.673-1.647.506,0,.908.148,1.203.444s.444.697.444,1.203c0,1.132-.55,1.698-1.647,1.698Z"/><path class="cls-34" d="M46.234,56.598l-.829-1.853,1.46-1.843c.314-.397.243-.776-.217-1.14-.863-.685-1.85-.795-2.962-.335l-.663-1.703c1.825-.706,3.43-.509,4.814.587s1.601,2.244.653,3.441l-2.256,2.846Z"/><path class="cls-34" d="M51.603,50.207l-6.058-6.106.629-2.028,6.76,6.813-1.331,1.321Z"/><path class="cls-34" d="M54.051,47.705l-.361-1.998,1.859-1.439c.4-.31.421-.696.062-1.159-.674-.87-1.606-1.215-2.796-1.034l-.236-1.812c1.94-.248,3.451.325,4.533,1.721s1.018,2.562-.19,3.498l-2.871,2.223Z"/><path class="cls-34" d="M63.08,39.391l1.162-.666.895,1.563-1.317.755c-.293.168-.586.284-.88.349.361.891.404,1.735.129,2.532-.252.716-.728,1.275-1.425,1.674-.542.31-1.15.476-1.824.496l-.814-1.42c.59-.007,1.1-.134,1.531-.38.474-.271.754-.634.842-1.091.087-.455-.024-.955-.335-1.497l-2.396-4.184.741-1.161.385-.615.008.013.005-.02,1.856,3.242c.193.335.399.535.617.598.22.064.492,0,.819-.186Z"/><path class="cls-34" d="M62.328,32.966c-.274.116-.529.125-.762.029-.234-.095-.41-.286-.529-.569-.112-.266-.119-.515-.023-.749s.281-.408.555-.523.526-.125.753-.033c.227.093.398.277.513.552.256.613.087,1.045-.508,1.293ZM64.429,32.088c-.274.115-.53.122-.765.021-.235-.1-.41-.288-.526-.562-.111-.266-.116-.516-.015-.751.1-.236.283-.409.549-.52.274-.116.525-.126.752-.033s.399.276.513.552c.257.613.088,1.044-.507,1.293ZM68.272,37.109l1.235-.517.695,1.662-1.401.585c-.668.279-1.296.332-1.885.16-.29.54-.769.95-1.436,1.23l-1.401.585-.695-1.661,1.236-.517c.348-.145.563-.324.646-.537.084-.212.051-.497-.099-.853l-1.062-2.54,1.351-1.63,1.441,3.446c.149.357.329.581.538.67.21.09.488.062.837-.084Z"/><path class="cls-34" d="M69.229,38.661l-.957-1.551,1.235-.517c.373-.058,1.106-.744,1.243-.931s.175-.472.116-.854l-.303-1.941,1.701-1.259.454,2.911c.06.382.181.642.363.779.182.138.459.177.832.119l.999-.156c.373-.059.625-.181.757-.367.131-.187.168-.471.108-.853l-.363-2.323,1.699-1.274.516,3.308c.06.382.183.641.37.778s.467.176.84.117l.999-.156c.373-.058.625-.18.757-.367.131-.186.168-.47.108-.852l-.425-2.721,1.701-1.259.589,3.779c.137.872-.021,1.6-.473,2.183-.392.513-.964.838-1.715.975l-1.456.227c-.726.114-1.353-.01-1.88-.37-.356.488-.881.79-1.575.909l-1.456.227c-.726.114-1.352-.01-1.88-.369-.394.503-1.205,1.286-1.931,1.4l-.974.407Z"/><path class="cls-34" d="M85.587,36.362l.517-8.586,1.931-.883-.577,9.581-1.872-.113Z"/><path class="cls-34" d="M102.988,38.935c-.353,1.137-1.028,1.919-2.024,2.347-.887.379-1.874.399-2.963.06-1.279-.398-2.13-1.155-2.55-2.273-.331-.872-.349-1.782-.055-2.729.233-.748.611-1.347,1.135-1.797l1.816.175c-.58.527-.979,1.145-1.201,1.855-.223.72-.201,1.366.067,1.938.256.547.697.917,1.322,1.112.654.204,1.214.196,1.682-.022.468-.218.795-.625.98-1.222l1.388-4.462,2.082-.38-1.68,5.399ZM100.683,32.467c-.284-.088-.485-.244-.603-.468-.117-.223-.131-.481-.039-.775.086-.275.241-.471.464-.588s.478-.133.762-.044.483.242.598.459c.114.217.127.468.039.752-.197.634-.605.856-1.22.664Z"/><path class="cls-34" d="M107.619,42.228c-.812-.396-1.314-.961-1.508-1.695-.167-.633-.078-1.302.266-2.006l2.555-5.243,2.116-.062-2.947,6.046c-.169.348-.219.631-.147.847.07.217.275.407.614.573l1.204.586-.789,1.618-1.364-.664Z"/><path class="cls-34" d="M116.823,45.95l1.095.745-1.013,1.488-1.254-.854c-.591-.401-.971-.883-1.142-1.442-.762.166-1.503.003-2.225-.488-.737-.503-1.161-1.132-1.27-1.89-.6.036-1.191-.144-1.773-.541l-1.254-.854,1.013-1.488,1.107.754c.312.212.579.295.802.248s.444-.229.661-.549l.244-.356c.653-.96,1.41-1.537,2.274-1.729.753-.171,1.494-.009,2.224.488.828.563,1.261,1.302,1.3,2.216.025.773-.246,1.578-.815,2.415l-.243.357c-.218.32-.305.593-.262.82.043.228.22.448.532.659ZM113.298,43.911c.623.424,1.28.128,1.973-.89.664-.975.685-1.676.062-2.1-.633-.43-1.279-.157-1.944.819-.692,1.017-.723,1.74-.09,2.17Z"/><path class="cls-34" d="M120.726,49.55c1.4-.605,2.74-.865,4.021-.781,1.428.086,2.577.618,3.446,1.598.777.875,1.094,1.847.953,2.913-.117.9-.555,1.686-1.311,2.357l-.245.218c-.675.599-1.39.854-2.143.767-.65-.074-1.23-.4-1.744-.98l-4.265-4.81c-.48-.542-.734-1.119-.761-1.732-.606-.099-1.149-.421-1.629-.962l-1.007-1.136,1.348-1.195.889,1.002c.249.282.489.428.716.438.228.011.486-.113.776-.37l1.47-1.304,1.978.752-2.205,1.954c-.475.422-.571.844-.287,1.269ZM126.435,54.372l.156-.138c.445-.395.696-.843.755-1.346s-.09-.954-.446-1.356c-.513-.579-1.215-.921-2.105-1.027s-1.845.035-2.866.424l3.07,3.462c.237.268.457.4.661.399s.462-.141.774-.418ZM129.316,49.749c-.197-.222-.289-.46-.273-.712.015-.251.138-.479.368-.684.216-.191.45-.279.701-.264.252.015.478.134.675.356.197.223.289.457.274.702-.015.245-.134.467-.356.664-.498.441-.96.42-1.388-.063Z"/><path class="cls-8" d="M46.234,56.598l-.829-1.853,1.46-1.843c.314-.397.243-.776-.217-1.14-.863-.685-1.85-.795-2.962-.335l-.663-1.703c1.825-.706,3.43-.509,4.814.587s1.601,2.244.653,3.441l-2.256,2.846Z"/><path class="cls-8" d="M51.603,50.207l-6.058-6.106.629-2.028,6.76,6.813-1.331,1.321Z"/><path class="cls-8" d="M54.051,47.705l-.361-1.998,1.859-1.439c.4-.31.421-.696.062-1.159-.674-.87-1.606-1.215-2.796-1.034l-.236-1.812c1.94-.248,3.451.325,4.533,1.721s1.018,2.562-.19,3.498l-2.871,2.223Z"/><path class="cls-8" d="M63.08,39.391l1.162-.666.895,1.563-1.317.755c-.293.168-.586.284-.88.349.361.891.404,1.735.129,2.532-.252.716-.728,1.275-1.425,1.674-.542.31-1.15.476-1.824.496l-.814-1.42c.59-.007,1.1-.134,1.531-.38.474-.271.754-.634.842-1.091.087-.455-.024-.955-.335-1.497l-2.396-4.184.741-1.161.385-.615.008.013.005-.02,1.856,3.242c.193.335.399.535.617.598.22.064.492,0,.819-.186Z"/><path class="cls-8" d="M62.328,32.966c-.274.116-.529.125-.762.029-.234-.095-.41-.286-.529-.569-.112-.266-.119-.515-.023-.749s.281-.408.555-.523.526-.125.753-.033c.227.093.398.277.513.552.256.613.087,1.045-.508,1.293ZM64.429,32.088c-.274.115-.53.122-.765.021-.235-.1-.41-.288-.526-.562-.111-.266-.116-.516-.015-.751.1-.236.283-.409.549-.52.274-.116.525-.126.752-.033s.399.276.513.552c.257.613.088,1.044-.507,1.293ZM68.272,37.109l1.235-.517.695,1.662-1.401.585c-.668.279-1.296.332-1.885.16-.29.54-.769.95-1.436,1.23l-1.401.585-.695-1.661,1.236-.517c.348-.145.563-.324.646-.537.084-.212.051-.497-.099-.853l-1.062-2.54,1.351-1.63,1.441,3.446c.149.357.329.581.538.67.21.09.488.062.837-.084Z"/><path class="cls-8" d="M69.229,38.661l-.957-1.551,1.235-.517c.373-.058,1.106-.744,1.243-.931s.175-.472.116-.854l-.303-1.941,1.701-1.259.454,2.911c.06.382.181.642.363.779.182.138.459.177.832.119l.999-.156c.373-.059.625-.181.757-.367.131-.187.168-.471.108-.853l-.363-2.323,1.699-1.274.516,3.308c.06.382.183.641.37.778s.467.176.84.117l.999-.156c.373-.058.625-.18.757-.367.131-.186.168-.47.108-.852l-.425-2.721,1.701-1.259.589,3.779c.137.872-.021,1.6-.473,2.183-.392.513-.964.838-1.715.975l-1.456.227c-.726.114-1.353-.01-1.88-.37-.356.488-.881.79-1.575.909l-1.456.227c-.726.114-1.352-.01-1.88-.369-.394.503-1.205,1.286-1.931,1.4l-.974.407Z"/><path class="cls-8" d="M85.587,36.362l.517-8.586,1.931-.883-.577,9.581-1.872-.113Z"/><path class="cls-8" d="M102.988,38.935c-.353,1.137-1.028,1.919-2.024,2.347-.887.379-1.874.399-2.963.06-1.279-.398-2.13-1.155-2.55-2.273-.331-.872-.349-1.782-.055-2.729.233-.748.611-1.347,1.135-1.797l1.816.175c-.58.527-.979,1.145-1.201,1.855-.223.72-.201,1.366.067,1.938.256.547.697.917,1.322,1.112.654.204,1.214.196,1.682-.022.468-.218.795-.625.98-1.222l1.388-4.462,2.082-.38-1.68,5.399ZM100.683,32.467c-.284-.088-.485-.244-.603-.468-.117-.223-.131-.481-.039-.775.086-.275.241-.471.464-.588s.478-.133.762-.044.483.242.598.459c.114.217.127.468.039.752-.197.634-.605.856-1.22.664Z"/><path class="cls-8" d="M107.619,42.228c-.812-.396-1.314-.961-1.508-1.695-.167-.633-.078-1.302.266-2.006l2.555-5.243,2.116-.062-2.947,6.046c-.169.348-.219.631-.147.847.07.217.275.407.614.573l1.204.586-.789,1.618-1.364-.664Z"/><path class="cls-8" d="M116.823,45.95l1.095.745-1.013,1.488-1.254-.854c-.591-.401-.971-.883-1.142-1.442-.762.166-1.503.003-2.225-.488-.737-.503-1.161-1.132-1.27-1.89-.6.036-1.191-.144-1.773-.541l-1.254-.854,1.013-1.488,1.107.754c.312.212.579.295.802.248s.444-.229.661-.549l.244-.356c.653-.96,1.41-1.537,2.274-1.729.753-.171,1.494-.009,2.224.488.828.563,1.261,1.302,1.3,2.216.025.773-.246,1.578-.815,2.415l-.243.357c-.218.32-.305.593-.262.82.043.228.22.448.532.659ZM113.298,43.911c.623.424,1.28.128,1.973-.89.664-.975.685-1.676.062-2.1-.633-.43-1.279-.157-1.944.819-.692,1.017-.723,1.74-.09,2.17Z"/><path class="cls-8" d="M120.726,49.55c1.4-.605,2.74-.865,4.021-.781,1.428.086,2.577.618,3.446,1.598.777.875,1.094,1.847.953,2.913-.117.9-.555,1.686-1.311,2.357l-.245.218c-.675.599-1.39.854-2.143.767-.65-.074-1.23-.4-1.744-.98l-4.265-4.81c-.48-.542-.734-1.119-.761-1.732-.606-.099-1.149-.421-1.629-.962l-1.007-1.136,1.348-1.195.889,1.002c.249.282.489.428.716.438.228.011.486-.113.776-.37l1.47-1.304,1.978.752-2.205,1.954c-.475.422-.571.844-.287,1.269ZM126.435,54.372l.156-.138c.445-.395.696-.843.755-1.346s-.09-.954-.446-1.356c-.513-.579-1.215-.921-2.105-1.027s-1.845.035-2.866.424l3.07,3.462c.237.268.457.4.661.399s.462-.141.774-.418ZM129.316,49.749c-.197-.222-.289-.46-.273-.712.015-.251.138-.479.368-.684.216-.191.45-.279.701-.264.252.015.478.134.675.356.197.223.289.457.274.702-.015.245-.134.467-.356.664-.498.441-.96.42-1.388-.063Z"/><path class="cls-34" d="M50.302,115.189l1.855.603-4.545,4.413c-.601.583-1.253.851-1.954.8-.607-.04-1.156-.32-1.656-.835l-3.434-3.534c-.543-.56-.782-1.183-.712-1.864.055-.606.341-1.161.865-1.667l1.009-.981,1.857.604-1.586,1.538c-.264.256-.398.492-.403.707-.002.216.119.447.363.698l3.133,3.228c.245.251.473.375.687.372.218-.003.452-.13.71-.38l3.812-3.701ZM47.528,113.898c.384.553.332,1.063-.149,1.531-.541.526-1.063.527-1.57.006l-1.424-1.464.873-.251,1.066,1.098c.175.178.349.181.527.009.226-.219.195-.477-.095-.774-.191-.197-.425-.33-.695-.4l.494-.48,1.769-.062.701.722-1.495.065Z"/><path class="cls-34" d="M48.855,124.27l4.771-6.394,1.95.298-5.326,7.135-1.395-1.04Z"/><path class="cls-34" d="M57.684,128.063l1.072.631-.847,1.438-1.215-.713c-.27-.159-.498-.341-.685-.549-.551.701-1.212,1.124-1.98,1.27-.691.125-1.359,0-2.002-.378-.5-.294-.912-.709-1.239-1.242l.769-1.308c.276.472.614.826,1.01,1.06.437.255.859.315,1.266.174.408-.139.758-.457,1.051-.957l2.268-3.855,1.277.064.675.027-.008.012.018-.004-1.758,2.984c-.182.31-.247.567-.197.773.049.205.224.397.526.574Z"/><path class="cls-34" d="M62.879,130.582l1.128.523-.703,1.514-1.278-.592c-.61-.284-1.039-.681-1.289-1.192-.551.141-1.132.068-1.741-.215l-1.278-.592.705-1.515,1.124.523c.318.146.576.183.772.107.199-.075.372-.275.525-.601l1.074-2.316,1.96-.094-1.459,3.142c-.151.326-.192.587-.122.788.07.2.262.373.58.521ZM62.003,123.92c-.252-.116-.419-.285-.498-.504-.081-.221-.061-.46.061-.718.11-.243.277-.403.497-.484.219-.082.455-.064.705.054.251.116.417.28.493.494.079.216.061.447-.056.697-.26.559-.662.712-1.201.461ZM63.917,124.808c-.25-.116-.415-.286-.493-.51-.08-.223-.061-.461.056-.712.114-.241.279-.401.504-.479.224-.079.458-.063.701.05.249.116.413.281.493.495.077.214.057.447-.06.697-.258.559-.658.712-1.201.46Z"/><path class="cls-34" d="M63.414,133.083l.424-1.615,1.414.372c.339.09.6.079.788-.029.185-.109.323-.336.413-.683l.464-1.762,1.914-.438-.694,2.642c-.091.348-.085.613.018.798.104.184.323.321.66.409l.909.239c.339.089.599.079.78-.031.18-.109.317-.338.408-.685l.556-2.107,1.918-.452-.793,3.004c-.09.346-.083.612.028.798.106.185.33.323.669.412l.907.239c.337.088.598.079.777-.031.182-.109.317-.339.41-.685l.65-2.469,1.914-.438-.902,3.43c-.21.792-.614,1.352-1.215,1.679-.525.29-1.128.353-1.82.192l-1.322-.349c-.659-.172-1.145-.51-1.46-1.012-.483.282-1.042.345-1.675.186l-1.322-.347c-.659-.172-1.146-.51-1.461-1.012-.521.282-1.112.335-1.769.162l-1.589-.418ZM71.848,127.71c-.267-.07-.459-.206-.576-.409-.119-.202-.141-.44-.068-.716.066-.258.203-.447.405-.564.202-.118.435-.142.703-.072.267.07.459.205.574.4.113.196.136.428.065.695-.155.597-.524.818-1.103.666ZM73.381,126.014c-.534-.14-.731-.482-.586-1.024.138-.526.475-.718,1.006-.577.525.138.718.47.582.995-.144.542-.478.746-1.002.607ZM73.904,128.252c-.267-.071-.459-.207-.576-.41-.119-.201-.143-.441-.07-.716.068-.258.205-.446.407-.565.202-.117.435-.142.702-.071.268.07.458.203.573.4s.137.428.067.695c-.157.597-.524.818-1.103.667Z"/><path class="cls-34" d="M85.769,128.85l1.744-.917-.026,6.031c-.003.892-.28,1.604-.823,2.135-.509.486-1.177.728-2.005.723l-5.204-.021.878-1.666,1.822.008.018-4.513,1.742-.917-.021,5.438.676.002c.424.002.726-.089.905-.271.183-.184.271-.496.274-.938l.02-5.093ZM84.017,138.656c-.219-.194-.439-.292-.66-.293-.304-.002-.458.137-.458.412,0,.139.06.28.178.429l1.367.006-.448.798-2.566-.012.447-.798.412.002c-.098-.185-.149-.374-.149-.568,0-.295.112-.546.327-.757.217-.211.479-.316.781-.315.277.003.532.099.773.294l-.004.801Z"/><path class="cls-34" d="M91.171,136.368l-1.14-7.895,1.588-1.164,1.271,8.81-1.718.249Z"/><path class="cls-34" d="M102.049,138.588l-1.183-3.226c-.269-.735-.269-1.402.002-2.001.241-.519.671-.922,1.293-1.208-.369-.277-.659-.714-.878-1.31-.349-.949-.365-1.796-.051-2.54.28-.651.798-1.115,1.549-1.39.767-.283,1.46-.257,2.072.077.526.287.915.772,1.165,1.455l.566,1.542c.226.642.194,1.219-.102,1.728-.293.508-.822.909-1.589,1.2l-1.8.66c-.327.121-.534.277-.62.47-.089.194-.067.459.055.795l.842,2.293-1.321,1.455ZM104.377,129.017c-.21-.57-.557-.767-1.041-.589-.311.114-.509.329-.594.644-.086.316-.046.694.116,1.135.36.984.864,1.357,1.512,1.12.501-.184.664-.517.487-1l-.48-1.309Z"/><path class="cls-34" d="M115.521,125.902l.796,1.468-1.49.811c.339.759.332,1.516-.02,2.273-.293.62-.762,1.105-1.408,1.456-.509.278-1.082.41-1.714.4l-.72-1.322c.573.014,1.076-.098,1.512-.336.341-.184.591-.441.753-.77.161-.328.184-.629.068-.9-.069.027-.175.073-.318.141-.144.059-.257.103-.335.135-.879.363-1.7.385-2.461.065-.639-.27-1.144-.744-1.512-1.424-.485-.889-.624-1.724-.419-2.505.181-.685.624-1.22,1.329-1.602.718-.392,1.404-.466,2.06-.226.563.208,1.018.631,1.365,1.269l1.021,1.88,1.492-.812ZM111.477,125.632c-.289-.532-.666-.674-1.124-.423-.615.332-.684.941-.203,1.822.426.784,1.02,1.027,1.779.729.123-.038.319-.116.578-.236l-1.029-1.893Z"/><path class="cls-34" d="M116.864,127.415l-1.069-1.282,1.124-.937c.27-.224.413-.442.433-.657.018-.214-.087-.458-.317-.735l-1.165-1.4.753-1.812,1.75,2.099c.23.275.449.425.659.447s.45-.078.717-.301l.722-.601c.27-.223.411-.442.427-.653.015-.21-.091-.453-.322-.73l-1.396-1.675.745-1.823,1.989,2.386c.23.276.451.424.665.443.212.019.453-.082.723-.306l.72-.601c.27-.224.409-.442.426-.652.016-.212-.09-.454-.32-.73l-1.634-1.962.753-1.813,2.27,2.726c.525.63.746,1.282.665,1.962-.067.594-.367,1.125-.9,1.592l-1.049.875c-.524.436-1.08.637-1.671.603-.051.557-.323,1.048-.819,1.473l-1.052.875c-.523.436-1.079.637-1.672.603-.072.587-.371,1.098-.893,1.536l-1.262,1.05Z"/><path class="cls-34" d="M130.584,113.231c.824.676,1.307,1.453,1.445,2.327.134.812-.083,1.562-.65,2.252-.366.45-.84.793-1.416,1.033l-1.175-.962c.509-.2.911-.48,1.202-.835.32-.393.444-.8.369-1.224-.073-.425-.336-.819-.784-1.187l-3.45-2.827.379-1.92,4.079,3.342Z"/><path class="cls-9" d="M50.302,115.189l1.855.603-4.545,4.413c-.601.583-1.253.851-1.954.8-.607-.04-1.156-.32-1.656-.835l-3.434-3.534c-.543-.56-.782-1.183-.712-1.864.055-.606.341-1.161.865-1.667l1.009-.981,1.857.604-1.586,1.538c-.264.256-.398.492-.403.707-.002.216.119.447.363.698l3.133,3.228c.245.251.473.375.687.372.218-.003.452-.13.71-.38l3.812-3.701ZM47.528,113.898c.384.553.332,1.063-.149,1.531-.541.526-1.063.527-1.57.006l-1.424-1.464.873-.251,1.066,1.098c.175.178.349.181.527.009.226-.219.195-.477-.095-.774-.191-.197-.425-.33-.695-.4l.494-.48,1.769-.062.701.722-1.495.065Z"/><path class="cls-10" d="M48.855,124.27l4.771-6.394,1.95.298-5.326,7.135-1.395-1.04Z"/><path class="cls-19" d="M57.684,128.063l1.072.631-.847,1.438-1.215-.713c-.27-.159-.498-.341-.685-.549-.551.701-1.212,1.124-1.98,1.27-.691.125-1.359,0-2.002-.378-.5-.294-.912-.709-1.239-1.242l.769-1.308c.276.472.614.826,1.01,1.06.437.255.859.315,1.266.174.408-.139.758-.457,1.051-.957l2.268-3.855,1.277.064.675.027-.008.012.018-.004-1.758,2.984c-.182.31-.247.567-.197.773.049.205.224.397.526.574Z"/><path class="cls-15" d="M62.879,130.582l1.128.523-.703,1.514-1.278-.592c-.61-.284-1.039-.681-1.289-1.192-.551.141-1.132.068-1.741-.215l-1.278-.592.705-1.515,1.124.523c.318.146.576.183.772.107.199-.075.372-.275.525-.601l1.074-2.316,1.96-.094-1.459,3.142c-.151.326-.192.587-.122.788.07.2.262.373.58.521ZM62.003,123.92c-.252-.116-.419-.285-.498-.504-.081-.221-.061-.46.061-.718.11-.243.277-.403.497-.484.219-.082.455-.064.705.054.251.116.417.28.493.494.079.216.061.447-.056.697-.26.559-.662.712-1.201.461ZM63.917,124.808c-.25-.116-.415-.286-.493-.51-.08-.223-.061-.461.056-.712.114-.241.279-.401.504-.479.224-.079.458-.063.701.05.249.116.413.281.493.495.077.214.057.447-.06.697-.258.559-.658.712-1.201.46Z"/><path class="cls-13" d="M63.414,133.083l.424-1.615,1.414.372c.339.09.6.079.788-.029.185-.109.323-.336.413-.683l.464-1.762,1.914-.438-.694,2.642c-.091.348-.085.613.018.798.104.184.323.321.66.409l.909.239c.339.089.599.079.78-.031.18-.109.317-.338.408-.685l.556-2.107,1.918-.452-.793,3.004c-.09.346-.083.612.028.798.106.185.33.323.669.412l.907.239c.337.088.598.079.777-.031.182-.109.317-.339.41-.685l.65-2.469,1.914-.438-.902,3.43c-.21.792-.614,1.352-1.215,1.679-.525.29-1.128.353-1.82.192l-1.322-.349c-.659-.172-1.145-.51-1.46-1.012-.483.282-1.042.345-1.675.186l-1.322-.347c-.659-.172-1.146-.51-1.461-1.012-.521.282-1.112.335-1.769.162l-1.589-.418ZM71.848,127.71c-.267-.07-.459-.206-.576-.409-.119-.202-.141-.44-.068-.716.066-.258.203-.447.405-.564.202-.118.435-.142.703-.072.267.07.459.205.574.4.113.196.136.428.065.695-.155.597-.524.818-1.103.666ZM73.381,126.014c-.534-.14-.731-.482-.586-1.024.138-.526.475-.718,1.006-.577.525.138.718.47.582.995-.144.542-.478.746-1.002.607ZM73.904,128.252c-.267-.071-.459-.207-.576-.41-.119-.201-.143-.441-.07-.716.068-.258.205-.446.407-.565.202-.117.435-.142.702-.071.268.07.458.203.573.4s.137.428.067.695c-.157.597-.524.818-1.103.667Z"/><path class="cls-12" d="M85.769,128.85l1.744-.917-.026,6.031c-.003.892-.28,1.604-.823,2.135-.509.486-1.177.728-2.005.723l-5.204-.021.878-1.666,1.822.008.018-4.513,1.742-.917-.021,5.438.676.002c.424.002.726-.089.905-.271.183-.184.271-.496.274-.938l.02-5.093ZM84.017,138.656c-.219-.194-.439-.292-.66-.293-.304-.002-.458.137-.458.412,0,.139.06.28.178.429l1.367.006-.448.798-2.566-.012.447-.798.412.002c-.098-.185-.149-.374-.149-.568,0-.295.112-.546.327-.757.217-.211.479-.316.781-.315.277.003.532.099.773.294l-.004.801Z"/><path class="cls-18" d="M91.171,136.368l-1.14-7.895,1.588-1.164,1.271,8.81-1.718.249Z"/><path class="cls-14" d="M102.049,138.588l-1.183-3.226c-.269-.735-.269-1.402.002-2.001.241-.519.671-.922,1.293-1.208-.369-.277-.659-.714-.878-1.31-.349-.949-.365-1.796-.051-2.54.28-.651.798-1.115,1.549-1.39.767-.283,1.46-.257,2.072.077.526.287.915.772,1.165,1.455l.566,1.542c.226.642.194,1.219-.102,1.728-.293.508-.822.909-1.589,1.2l-1.8.66c-.327.121-.534.277-.62.47-.089.194-.067.459.055.795l.842,2.293-1.321,1.455ZM104.377,129.017c-.21-.57-.557-.767-1.041-.589-.311.114-.509.329-.594.644-.086.316-.046.694.116,1.135.36.984.864,1.357,1.512,1.12.501-.184.664-.517.487-1l-.48-1.309Z"/><path class="cls-21" d="M115.521,125.902l.796,1.468-1.49.811c.339.759.332,1.516-.02,2.273-.293.62-.762,1.105-1.408,1.456-.509.278-1.082.41-1.714.4l-.72-1.322c.573.014,1.076-.098,1.512-.336.341-.184.591-.441.753-.77.161-.328.184-.629.068-.9-.069.027-.175.073-.318.141-.144.059-.257.103-.335.135-.879.363-1.7.385-2.461.065-.639-.27-1.144-.744-1.512-1.424-.485-.889-.624-1.724-.419-2.505.181-.685.624-1.22,1.329-1.602.718-.392,1.404-.466,2.06-.226.563.208,1.018.631,1.365,1.269l1.021,1.88,1.492-.812ZM111.477,125.632c-.289-.532-.666-.674-1.124-.423-.615.332-.684.941-.203,1.822.426.784,1.02,1.027,1.779.729.123-.038.319-.116.578-.236l-1.029-1.893Z"/><path class="cls-17" d="M116.864,127.415l-1.069-1.282,1.124-.937c.27-.224.413-.442.433-.657.018-.214-.087-.458-.317-.735l-1.165-1.4.753-1.812,1.75,2.099c.23.275.449.425.659.447s.45-.078.717-.301l.722-.601c.27-.223.411-.442.427-.653.015-.21-.091-.453-.322-.73l-1.396-1.675.745-1.823,1.989,2.386c.23.276.451.424.665.443.212.019.453-.082.723-.306l.72-.601c.27-.224.409-.442.426-.652.016-.212-.09-.454-.32-.73l-1.634-1.962.753-1.813,2.27,2.726c.525.63.746,1.282.665,1.962-.067.594-.367,1.125-.9,1.592l-1.049.875c-.524.436-1.08.637-1.671.603-.051.557-.323,1.048-.819,1.473l-1.052.875c-.523.436-1.079.637-1.672.603-.072.587-.371,1.098-.893,1.536l-1.262,1.05Z"/><path class="cls-20" d="M130.584,113.231c.824.676,1.307,1.453,1.445,2.327.134.812-.083,1.562-.65,2.252-.366.45-.84.793-1.416,1.033l-1.175-.962c.509-.2.911-.48,1.202-.835.32-.393.444-.8.369-1.224-.073-.425-.336-.819-.784-1.187l-3.45-2.827.379-1.92,4.079,3.342Z"/><polygon class="cls-16" points="36.024 80.59 34.184 76.008 32.344 80.59 27.418 80.924 31.207 84.09 30.002 88.879 34.184 86.253 38.366 88.879 37.161 84.09 40.951 80.924 36.024 80.59"/><polygon class="cls-22" points="137.046 80.59 135.206 76.008 133.366 80.59 128.44 80.924 132.229 84.09 131.025 88.879 135.206 86.253 139.388 88.879 138.184 84.09 141.973 80.924 137.046 80.59"/></g></g></svg>