<?xml version="1.0" encoding="utf-8"?>
<!-- Generator: Adobe Illustrator 22.0.0, SVG Export Plug-In . SVG Version: 6.00 Build 0)  -->
<svg version="1.1" id="Layer_1" xmlns="http://www.w3.org/2000/svg" xmlns:xlink="http://www.w3.org/1999/xlink" x="0px" y="0px"
	 viewBox="0 0 1018.3 483.3" style="enable-background:new 0 0 1018.3 483.3;" xml:space="preserve">
<style type="text/css">
	.st0{fill:#00AB84;}
	.st1{fill:#00594F;}
	.st2{fill:#C7C8C9;}
	.st3{fill:#4CC2BF;}
	.st4{fill:#54565B;}
</style>
<g>
	<g>
		<path class="st0" d="M587.5,311.3v0.2V376c4.2,0,401-93,401-93c14.9-3.5,19.5-6.8,19.5-14.3v-67.4c-0.1,8.4-12.1,14.9-24.7,17.8
			L587.5,311.3z"/>
		<path class="st1" d="M587.5,405.7v0.2v64.5c4.2,0,401-93,401-93c14.9-3.5,19.5-6.8,19.5-14.3v-67.4c-0.1,8.4-12.1,14.9-24.7,17.8
			L587.5,405.7z"/>
		<path class="st2" d="M612.6,184.6l30,6.8c41-9.6,90.9-21.2,146.9-34.2l-202-45.8v57.2C587.5,176.9,594.3,180.5,612.6,184.6"/>
		<path class="st2" d="M860.1,140.8L612.6,84.7c-18.3-4.1-25.1-7.7-25.1-16V11.5l406.6,92.2c-4.2,4.9-12.4,8.7-21,10.8l-0.1,0
			L860.1,140.8z"/>
		<path class="st3" d="M582.3,217.5l-57.8,78.9c5.8-1.3,464-108.3,464-108.3c14.9-3.5,19.5-6.8,19.5-14.3v-67.4
			c-0.1,8.4-12.1,14.9-24.7,17.8L582.3,217.5z"/>
	</g>
	<g>
		<path class="st4" d="M33.2,135.6l0,64.7c0,4.7-0.7,7.8-2.2,9.6c-1.5,1.7-3.6,2.6-6.6,2.6c-2.7,0-5.9-0.9-9.5-2.6V228
			c6.8,2.3,12.6,3.4,17.1,3.4c5.2,0,9.7-1.1,13.4-3.4c3.7-2.3,6.4-5.6,8.1-9.9c1.7-4.3,2.6-10.8,2.6-19.5v-68.3L33.2,135.6z"/>
		<path class="st4" d="M107.8,101.2l-22.9,5.4v64.1c0,8.7,0.9,15.2,2.6,19.5c1.7,4.3,4.4,7.6,8.1,9.9c3.7,2.3,8.1,3.4,13.2,3.4
			l252.3-0.1c4.6-0.2,8.6-1.3,12-3.4c3.7-2.3,6.4-5.6,8.1-9.9c1.7-4.3,2.6-10.8,2.6-19.5v-34.5l-22.9,5.4v26c0,4.6-0.7,7.8-2.2,9.6
			c-1.2,1.5-3,2.3-5.3,2.5h-41l-0.3-6.7c0-5.9-1.1-11.7-3.3-18.1c-2.2-6.4-5.9-11.9-11-16.7c-5.1-4.7-11.8-8.5-20-11.2
			c-8.2-2.7-18.3-4.1-30.2-4.1c-4.5,0-8.4,0.1-11.5,0.2c-3.1,0.1-0.5,0.4-2.9,0.6l-2.1,22c2.4-0.3,5.3-0.5,8.6-0.6
			c3.3-0.1,7-0.2,11-0.2c7.1,0,13.1,0.6,18,1.9c4.9,1.3,8.9,3.3,12,6.1c3.1,2.8,5.4,6.4,6.7,10.9c1.3,4.3,2,9.6,2,15.9H115.3
			c-2.3-0.2-4-1-5.3-2.5c-1.5-1.7-2.2-4.9-2.2-9.6V101.2z"/>
		<path class="st4" d="M426.7,225c1.5,0,3.3,0.6,4.9,1.2c1.8,0.9,3,1.5,4,2.1v-10.9c-1.8-0.9-3.7-1.8-5.2-2.4
			c-1.8-0.6-3.3-0.9-5.2-0.9c-2.1,0-4.3,0.3-6.1,0.9c-2.1,0.6-3.7,1.5-5.2,2.7c-1.2,0.9-2.4,2.7-3.3,4.6c-0.9,2.1-1.2,4.3-1.2,7
			c0,0.6,0,1.5,0.3,2.7c0.3,0.9,0.6,2.1,0.9,2.7h-6.4h-0.6v9.7h31.6v-10h-13.1c-0.6-0.6-0.9-1.5-1.2-2.7c-0.3-1.2-0.3-1.8-0.3-2.4
			c0-1.8,0.6-3,1.8-3.7C423.6,225,425.2,225,426.7,225z"/>
		<path class="st4" d="M331.5,218.3c-3.5,0-6.5,1.2-9.1,3.8c-2.6,2.6-3.8,5.6-3.8,9.4c0,3.5,1.2,6.5,3.8,9.1
			c2.3,2.6,5.6,3.8,9.1,3.8c3.5,0,6.7-1.5,9.1-3.8c2.6-2.6,3.8-5.6,3.8-9.1c0-3.8-1.2-6.7-3.8-9.4
			C337.9,219.5,335,218.3,331.5,218.3z"/>
		<path class="st4" d="M364.1,218.3c-3.5,0-6.5,1.2-9.1,3.8c-2.6,2.6-3.8,5.6-3.8,9.4c0,3.5,1.2,6.5,3.8,9.1
			c2.3,2.6,5.6,3.8,9.1,3.8s6.5-1.5,9.1-3.8c2.6-2.6,3.8-5.6,3.8-9.1c0-3.8-1.2-6.7-3.8-9.4C370.5,219.5,367.6,218.3,364.1,218.3z"
			/>
		<path class="st4" d="M252.2,218.3c-3.5,0-6.5,1.2-9.1,3.8c-2.6,2.6-3.8,5.6-3.8,9.4c0,3.5,1.2,6.5,3.8,9.1
			c2.3,2.6,5.6,3.8,9.1,3.8c3.5,0,6.7-1.5,9.1-3.8c2.6-2.6,3.8-5.6,3.8-9.1c0-3.8-1.2-6.7-3.8-9.4
			C258.6,219.5,255.7,218.3,252.2,218.3z"/>
		<polygon class="st4" points="412.5,101.2 412.5,203.4 435.5,203.4 435.5,95.9 		"/>
		<path class="st4" d="M32.4,385.4h57v-21.1H37.5v-17.7h46v-21.2h-46v-19.1h51.9v-20.8h-57c-9.8,0-17.7,7.9-17.7,17.7v64.4
			C14.6,377.5,22.6,385.4,32.4,385.4z"/>
		<path class="st4" d="M431.7,381.7c-7.2-9.9-14.5-19.8-21.9-29.6c5.1-2.6,9.4-6.3,12.7-11.2c3.8-5.7,5.8-12.5,5.8-20.2
			c0-5-0.9-9.8-2.6-14.1c-1.7-4.3-4.1-8.1-7.2-11.2c-3.1-3.1-6.8-5.6-11.2-7.3c-4.3-1.7-9.1-2.6-14.2-2.6h-32.3
			c-7.3,0-13.3,6-13.3,13.3v86.5h22.9v-30.3h14.4c3.4,4.9,6.8,9.7,10.2,14.4c3.6,5,7.4,10.1,11.2,15l0.7,0.9h27.5L431.7,381.7z
			 M370.4,306.4H393c2.7,0,4.9,0.5,6.4,1.4c1.6,1,2.8,2.2,3.7,3.6c0.9,1.5,1.5,3.1,1.8,4.7c0.3,1.8,0.5,3.3,0.5,4.5
			c0,2.3-0.4,4.4-1.1,6c-0.8,1.7-1.8,3.2-2.9,4.3c-1.2,1.1-2.4,1.9-3.9,2.5c-1.5,0.6-2.9,0.8-4.3,0.8h-22.7V306.4z"/>
		<path class="st4" d="M166.9,290.3v56.2c0,1.7-0.2,3.7-0.6,5.9c-0.3,2-1.1,4.1-2.1,6c-1,1.9-2.5,3.4-4.4,4.7
			c-1.8,1.2-4.4,1.8-7.6,1.8c-1.9,0-3.5-0.3-4.8-0.8c-1.4-0.6-2.6-1.3-3.6-2.1c-1-0.8-1.9-1.8-2.7-2.9c-0.8-1.1-1.4-2.2-1.8-3.3
			l-0.9-2.2l-20.8,9.3l1,2.1c2.9,6.5,7.4,11.7,13.2,15.4c5.8,3.7,12.7,5.6,20.6,5.6c5.6,0,10.7-1,15.3-2.8c4.6-1.9,8.6-4.6,11.9-8.1
			c3.3-3.5,5.9-7.7,7.6-12.6c1.8-4.8,2.7-10.2,2.7-16V285L166.9,290.3z"/>
		<g>
			<path class="st4" d="M268.6,288c-0.6-1.4-2-2.3-3.5-2.3s-3,1-3.5,2.3l-49.8,97.4h25.1l7.3-14.9H286l7.4,14.9h25.1L268.6,288z
				 M255.2,349.9l9.9-20.9l9.8,20.9H255.2z"/>
		</g>
	</g>
</g>
</svg>
